<svg width="65" height="36" viewBox="0 0 65 36" fill="none" xmlns="http://www.w3.org/2000/svg">
<path d="M43.8306 17.4989C43.8306 23.8412 38.6892 28.9826 32.3469 28.9826C26.0047 28.9826 20.8633 23.8412 20.8633 17.4989C20.8633 11.1567 26.0047 6.01526 32.3469 6.01526C38.6892 6.01526 43.8306 11.1567 43.8306 17.4989Z" fill="#858585"/>
<path d="M41.279 12.3952C41.279 15.2139 38.9939 17.499 36.1751 17.499C33.3564 17.499 31.0713 15.2139 31.0713 12.3952C31.0713 9.57639 33.3564 7.29132 36.1751 7.29132C38.9939 7.29132 41.279 9.57639 41.279 12.3952Z" fill="#E3E3E3"/>
<path d="M3 17.8279C24.933 -1.94263 39.1431 -1.94261 61.694 17.8279" stroke="#858585" stroke-width="5" stroke-linecap="round"/>
<path d="M3.30957 17.828C25.0117 38.4223 39.0722 38.4223 61.3857 17.828" stroke="#858585" stroke-width="5" stroke-linecap="round"/>
</svg>
