<svg width="45" height="38" viewBox="0 0 45 38" fill="none" xmlns="http://www.w3.org/2000/svg">
<path d="M9 19L18 27" stroke="#FBF868" stroke-width="4" stroke-linecap="round"/>
<path fill-rule="evenodd" clip-rule="evenodd" d="M5 4H32.0338C32.5861 4 33.0338 4.44772 33.0338 5V7.81639L36.9231 3.94841C36.4401 1.69192 34.4345 0 32.0338 0H5C2.23858 0 0 2.23858 0 5V32.0338C0 34.7953 2.23858 37.0338 5 37.0338H32.0338C34.7953 37.0338 37.0338 34.7952 37.0338 32.0338V12.3004L33.0338 16.2785V32.0338C33.0338 32.5861 32.5861 33.0338 32.0338 33.0338H5C4.44772 33.0338 4 32.5861 4 32.0338V5C4 4.44772 4.44772 4 5 4Z" fill="white"/>
<line x1="42.1131" y1="2.82842" x2="17.6419" y2="27.1659" stroke="#FBF868" stroke-width="4" stroke-linecap="round"/>
</svg>
